<?xml version="1.0" encoding="UTF-8" standalone="no"?>
<!DOCTYPE svg PUBLIC "-//W3C//DTD SVG 1.1//EN"
 "http://www.w3.org/Graphics/SVG/1.1/DTD/svg11.dtd">
<!-- Generated by graphviz version 14.1.5 (0)
 -->
<!-- Title: fsm_state_graph Pages: 1 -->
<svg width="588pt" height="720pt"
 viewBox="0.00 0.00 588.00 720.00" xmlns="http://www.w3.org/2000/svg" xmlns:xlink="http://www.w3.org/1999/xlink">
<g id="graph0" class="graph" transform="scale(1 1) rotate(0) translate(4 716)">
<title>fsm_state_graph</title>
<polygon fill="white" stroke="none" points="-4,4 -4,-716 584,-716 584,4 -4,4"/>
<g id="clust1" class="cluster">
<title>cluster_transitions</title>
<polygon fill="none" stroke="black" points="8,-8 8,-704 572,-704 572,-8 8,-8"/>
<text xml:space="preserve" text-anchor="middle" x="290" y="-686.7" font-family="Times,serif" font-size="14.00">State Transitions</text>
</g>
<g id="clust2" class="cluster">
<title>cluster_fsm_0</title>
<polygon fill="none" stroke="black" points="184,-16 184,-93.25 292,-93.25 292,-16 184,-16"/>
<text xml:space="preserve" text-anchor="middle" x="238" y="-75.95" font-family="Times,serif" font-size="14.00">polyrole_exit</text>
</g>
<g id="clust3" class="cluster">
<title>cluster_fsm_1</title>
<polygon fill="none" stroke="black" points="16,-128.5 16,-670.75 564,-670.75 564,-128.5 16,-128.5"/>
<text xml:space="preserve" text-anchor="middle" x="290" y="-653.45" font-family="Times,serif" font-size="14.00">s3: { .client, .server }</text>
</g>
<!-- 6 -->
<g id="node1" class="node">
<title>6</title>
<polygon fill="none" stroke="cyan" points="272.62,-60 203.38,-60 203.38,-24 272.62,-24 272.62,-60"/>
<text xml:space="preserve" text-anchor="middle" x="238" y="-37.33" font-family="Times,serif" font-size="14.00">[6] Exit</text>
</g>
<!-- 0 -->
<g id="node2" class="node">
<title>0</title>
<polygon fill="none" stroke="red" points="427.75,-637.5 182.25,-637.5 182.25,-601.5 427.75,-601.5 427.75,-637.5"/>
<text xml:space="preserve" text-anchor="middle" x="305" y="-614.83" font-family="Times,serif" font-size="14.00">🅱️[0] Start .client &#45;&gt; { .server }</text>
</g>
<!-- 1 -->
<g id="node3" class="node">
<title>1</title>
<polygon fill="none" stroke="green" points="496.75,-548.25 113.25,-548.25 113.25,-512.25 496.75,-512.25 496.75,-548.25"/>
<text xml:space="preserve" text-anchor="middle" x="305" y="-525.58" font-family="Times,serif" font-size="14.00">🅰️[1] ServerLookupCredential .server &#45;&gt; { .client }</text>
</g>
<!-- 0&#45;&gt;1 -->
<g id="edge1" class="edge">
<title>0&#45;&gt;1</title>
<path fill="none" stroke="red" d="M305,-601.26C305,-589.43 305,-573.45 305,-559.75"/>
<polygon fill="red" stroke="red" points="308.5,-559.97 305,-549.97 301.5,-559.97 308.5,-559.97"/>
<text xml:space="preserve" text-anchor="middle" x="383" y="-570.2" font-family="Times,serif" font-size="14.00" fill="red">req_credential_and_id</text>
</g>
<!-- 8 -->
<g id="node9" class="node">
<title>8</title>
<polygon fill="none" stroke="darkred" points="553.38,-261.75 308.62,-261.75 308.62,-225.75 553.38,-225.75 553.38,-261.75"/>
<text xml:space="preserve" text-anchor="middle" x="431" y="-239.07" font-family="Times,serif" font-size="14.00">🅱️[8] Send .client &#45;&gt; { .server }</text>
</g>
<!-- 0&#45;&gt;8 -->
<g id="edge2" class="edge">
<title>0&#45;&gt;8</title>
<path fill="none" stroke="red" d="M418.44,-601.05C434.52,-596.48 450.5,-590.74 465,-583.5 486.5,-572.77 495.97,-570.09 506,-548.25 526.43,-503.74 584.42,-537.98 492,-315 484.96,-298.03 472.14,-282.27 460.06,-269.99"/>
<polygon fill="red" stroke="red" points="462.59,-267.58 452.98,-263.14 457.72,-272.61 462.59,-267.58"/>
<text xml:space="preserve" text-anchor="middle" x="555.67" y="-417.57" font-family="Times,serif" font-size="14.00" fill="red">failed</text>
</g>
<!-- 9 -->
<g id="node10" class="node">
<title>9</title>
<polygon fill="none" stroke="darkgreen" points="312.12,-494.25 23.88,-494.25 23.88,-458.25 312.12,-458.25 312.12,-494.25"/>
<text xml:space="preserve" text-anchor="middle" x="168" y="-471.57" font-family="Times,serif" font-size="14.00">🅰️[9] WaitServer .server &#45;&gt; { .client }</text>
</g>
<!-- 0&#45;&gt;9 -->
<g id="edge3" class="edge">
<title>0&#45;&gt;9</title>
<path fill="none" stroke="red" d="M181.94,-601.27C151.62,-590.89 122.56,-574.4 104,-548.25 94.74,-535.2 95.84,-526.01 104,-512.25 106.33,-508.32 109.28,-504.8 112.62,-501.66"/>
<polygon fill="red" stroke="red" points="114.72,-504.45 120.42,-495.52 110.4,-498.95 114.72,-504.45"/>
<text xml:space="preserve" text-anchor="middle" x="184.46" y="-570.2" font-family="Times,serif" font-size="14.00" fill="red">get_metrics</text>
</g>
<!-- 2 -->
<g id="node4" class="node">
<title>2</title>
<polygon fill="none" stroke="blue" points="476.38,-440.25 225.62,-440.25 225.62,-404.25 476.38,-404.25 476.38,-440.25"/>
<text xml:space="preserve" text-anchor="middle" x="351" y="-417.57" font-family="Times,serif" font-size="14.00">🅱️[2] SigV4 .client &#45;&gt; { .server }</text>
</g>
<!-- 1&#45;&gt;2 -->
<g id="edge4" class="edge">
<title>1&#45;&gt;2</title>
<path fill="none" stroke="green" d="M314.32,-511.97C317.22,-506.37 320.35,-500.1 323,-494.25 329.3,-480.34 335.6,-464.57 340.63,-451.42"/>
<polygon fill="green" stroke="green" points="343.9,-452.67 344.15,-442.08 337.35,-450.21 343.9,-452.67"/>
<text xml:space="preserve" text-anchor="middle" x="345.72" y="-471.57" font-family="Times,serif" font-size="14.00" fill="green">ok</text>
</g>
<!-- 1&#45;&gt;8 -->
<g id="edge5" class="edge">
<title>1&#45;&gt;8</title>
<path fill="none" stroke="green" d="M313.37,-512.03C319.68,-496.25 325.36,-473.14 313,-458.25 285.28,-424.85 251.11,-467.11 217,-440.25 189.73,-418.77 201.8,-399.38 185,-369 180.35,-360.59 175.79,-360.2 173,-351 168.36,-335.69 166,-329.39 173,-315 184.12,-292.16 194.74,-289.96 218,-279.75 233.3,-273.03 263.78,-266.75 297.02,-261.41"/>
<polygon fill="green" stroke="green" points="297.54,-264.87 306.88,-259.87 296.46,-257.96 297.54,-264.87"/>
<text xml:space="preserve" text-anchor="middle" x="243.16" y="-372.95" font-family="Times,serif" font-size="14.00" fill="green">no_access_key</text>
</g>
<!-- 3 -->
<g id="node5" class="node">
<title>3</title>
<polygon fill="none" stroke="brown" points="432.38,-351 181.62,-351 181.62,-315 432.38,-315 432.38,-351"/>
<text xml:space="preserve" text-anchor="middle" x="307" y="-328.32" font-family="Times,serif" font-size="14.00">🅱️[3] Route .client &#45;&gt; { .server }</text>
</g>
<!-- 2&#45;&gt;3 -->
<g id="edge6" class="edge">
<title>2&#45;&gt;3</title>
<path fill="none" stroke="blue" d="M342.31,-404.01C336.16,-391.82 327.79,-375.23 320.75,-361.26"/>
<polygon fill="blue" stroke="blue" points="323.98,-359.91 316.36,-352.55 317.73,-363.06 323.98,-359.91"/>
<text xml:space="preserve" text-anchor="middle" x="341.19" y="-372.95" font-family="Times,serif" font-size="14.00" fill="blue">ok</text>
</g>
<!-- 2&#45;&gt;8 -->
<g id="edge7" class="edge">
<title>2&#45;&gt;8</title>
<path fill="none" stroke="blue" d="M386.73,-403.78C406.67,-391.91 429.7,-374.16 441,-351 452.97,-326.47 447.85,-294.99 441.35,-272.68"/>
<polygon fill="blue" stroke="blue" points="444.75,-271.83 438.37,-263.37 438.09,-273.96 444.75,-271.83"/>
<text xml:space="preserve" text-anchor="middle" x="468.09" y="-328.32" font-family="Times,serif" font-size="14.00" fill="blue">failed</text>
</g>
<!-- 4 -->
<g id="node6" class="node">
<title>4</title>
<polygon fill="none" stroke="navy" points="284.38,-261.75 39.63,-261.75 39.63,-225.75 284.38,-225.75 284.38,-261.75"/>
<text xml:space="preserve" text-anchor="middle" x="162" y="-239.07" font-family="Times,serif" font-size="14.00">🅱️[4] Send .client &#45;&gt; { .server }</text>
</g>
<!-- 3&#45;&gt;4 -->
<g id="edge8" class="edge">
<title>3&#45;&gt;4</title>
<path fill="none" stroke="brown" d="M278.01,-314.55C255.78,-301.18 224.89,-282.59 200.58,-267.96"/>
<polygon fill="brown" stroke="brown" points="202.61,-265.1 192.24,-262.95 199,-271.1 202.61,-265.1"/>
<text xml:space="preserve" text-anchor="middle" x="255.74" y="-283.7" font-family="Times,serif" font-size="14.00" fill="brown">ok</text>
</g>
<!-- 3&#45;&gt;8 -->
<g id="edge9" class="edge">
<title>3&#45;&gt;8</title>
<path fill="none" stroke="brown" d="M331.8,-314.55C350.47,-301.42 376.28,-283.25 396.89,-268.75"/>
<polygon fill="brown" stroke="brown" points="398.85,-271.65 405.01,-263.04 394.82,-265.93 398.85,-271.65"/>
<text xml:space="preserve" text-anchor="middle" x="399.98" y="-283.7" font-family="Times,serif" font-size="14.00" fill="brown">failed</text>
</g>
<!-- 5 -->
<g id="node7" class="node">
<title>5</title>
<polygon fill="none" stroke="teal" points="289.88,-172.5 24.12,-172.5 24.12,-136.5 289.88,-136.5 289.88,-172.5"/>
<text xml:space="preserve" text-anchor="middle" x="157" y="-149.82" font-family="Times,serif" font-size="14.00">🅰️[5] Success .server &#45;&gt; { .client }</text>
</g>
<!-- 4&#45;&gt;5 -->
<g id="edge10" class="edge">
<title>4&#45;&gt;5</title>
<path fill="none" stroke="navy" d="M161.01,-225.51C160.33,-213.68 159.42,-197.7 158.63,-184"/>
<polygon fill="navy" stroke="navy" points="162.14,-184 158.07,-174.21 155.15,-184.4 162.14,-184"/>
<text xml:space="preserve" text-anchor="middle" x="179.82" y="-194.45" font-family="Times,serif" font-size="14.00" fill="navy">finish</text>
</g>
<!-- 7 -->
<g id="node8" class="node">
<title>7</title>
<polygon fill="none" stroke="magenta" points="555.88,-172.5 308.12,-172.5 308.12,-136.5 555.88,-136.5 555.88,-172.5"/>
<text xml:space="preserve" text-anchor="middle" x="432" y="-149.82" font-family="Times,serif" font-size="14.00">🅰️[7] Error .server &#45;&gt; { .client }</text>
</g>
<!-- 4&#45;&gt;7 -->
<g id="edge11" class="edge">
<title>4&#45;&gt;7</title>
<path fill="none" stroke="navy" d="M215.99,-225.3C259.59,-211.22 321.07,-191.35 367.3,-176.41"/>
<polygon fill="navy" stroke="navy" points="368.22,-179.79 376.66,-173.38 366.07,-173.13 368.22,-179.79"/>
<text xml:space="preserve" text-anchor="middle" x="341.06" y="-194.45" font-family="Times,serif" font-size="14.00" fill="navy">failed</text>
</g>
<!-- 5&#45;&gt;6 -->
<g id="edge12" class="edge">
<title>5&#45;&gt;6</title>
<path fill="none" stroke="teal" d="M169.66,-136.23C182.79,-118.31 203.5,-90.06 218.69,-69.35"/>
<polygon fill="teal" stroke="teal" points="221.45,-71.5 224.54,-61.37 215.8,-67.36 221.45,-71.5"/>
<text xml:space="preserve" text-anchor="middle" x="208.57" y="-105.2" font-family="Times,serif" font-size="14.00" fill="teal">exit</text>
</g>
<!-- 7&#45;&gt;6 -->
<g id="edge13" class="edge">
<title>7&#45;&gt;6</title>
<path fill="none" stroke="magenta" d="M401.69,-136.23C368.47,-117.31 315.03,-86.88 278.3,-65.96"/>
<polygon fill="magenta" stroke="magenta" points="280.16,-62.98 269.73,-61.08 276.69,-69.07 280.16,-62.98"/>
<text xml:space="preserve" text-anchor="middle" x="382.75" y="-105.2" font-family="Times,serif" font-size="14.00" fill="magenta">exit</text>
</g>
<!-- 8&#45;&gt;7 -->
<g id="edge14" class="edge">
<title>8&#45;&gt;7</title>
<path fill="none" stroke="darkred" d="M431.2,-225.51C431.33,-213.68 431.52,-197.7 431.67,-184"/>
<polygon fill="darkred" stroke="darkred" points="435.17,-184.25 431.79,-174.22 428.17,-184.17 435.17,-184.25"/>
<text xml:space="preserve" text-anchor="middle" x="451.46" y="-194.45" font-family="Times,serif" font-size="14.00" fill="darkred">finish</text>
</g>
<!-- 8&#45;&gt;7 -->
<g id="edge15" class="edge">
<title>8&#45;&gt;7</title>
<path fill="none" stroke="darkred" d="M401.73,-225.44C395.88,-220.51 390.54,-214.59 387.25,-207.75 383.93,-200.84 383.89,-197.39 387.25,-190.5 388.99,-186.93 391.28,-183.62 393.92,-180.58"/>
<polygon fill="darkred" stroke="darkred" points="396.22,-183.22 400.98,-173.75 391.36,-178.19 396.22,-183.22"/>
<text xml:space="preserve" text-anchor="middle" x="407.12" y="-194.45" font-family="Times,serif" font-size="14.00" fill="darkred">failed</text>
</g>
<!-- 9&#45;&gt;4 -->
<g id="edge16" class="edge">
<title>9&#45;&gt;4</title>
<path fill="none" stroke="darkgreen" d="M161.76,-457.8C155.77,-440.06 147.15,-411.65 143.75,-386.25 138.5,-346.98 146.93,-301.54 154,-272.97"/>
<polygon fill="darkgreen" stroke="darkgreen" points="157.3,-274.21 156.43,-263.65 150.52,-272.45 157.3,-274.21"/>
<text xml:space="preserve" text-anchor="middle" x="164.38" y="-372.95" font-family="Times,serif" font-size="14.00" fill="darkgreen">notify</text>
</g>
</g>
</svg>
